<svg width="17" height="11" viewBox="0 0 17 11" fill="none" xmlns="http://www.w3.org/2000/svg">
<path d="M14.1712 1.73708C14.1712 0.909249 13.4209 0.231934 12.504 0.231934H10.0032V1.73708H12.504V3.73139L9.60304 7.00508H6.66878V3.24222H3.33439C1.49214 3.24222 0 4.58933 0 6.25251V8.51023H1.6672C1.6672 9.7595 2.78422 10.7679 4.16799 10.7679C5.55176 10.7679 6.66878 9.7595 6.66878 8.51023H10.4033L14.1712 4.2582V1.73708ZM4.16799 9.2628C3.70951 9.2628 3.33439 8.92414 3.33439 8.51023H5.00159C5.00159 8.92414 4.62647 9.2628 4.16799 9.2628Z" fill="black"/>
<path d="M6.66879 0.984497H2.50079V2.48962H6.66879V0.984497Z" fill="black"/>
<path d="M14.1712 6.25244C12.7874 6.25244 11.6704 7.26088 11.6704 8.51015C11.6704 9.75941 12.7874 10.7679 14.1712 10.7679C15.5549 10.7679 16.6719 9.75941 16.6719 8.51015C16.6719 7.26088 15.5549 6.25244 14.1712 6.25244ZM14.1712 9.26272C13.7127 9.26272 13.3376 8.92406 13.3376 8.51015C13.3376 8.09623 13.7127 7.75758 14.1712 7.75758C14.6296 7.75758 15.0047 8.09623 15.0047 8.51015C15.0047 8.92406 14.6296 9.26272 14.1712 9.26272Z" fill="black"/>
</svg>
