<svg width="45" height="30" viewBox="0 0 45 30" fill="none" xmlns="http://www.w3.org/2000/svg">
<path d="M44.1213 14.1594C44.0565 14.0139 42.4976 10.5557 39.0174 7.07522C35.7901 3.84757 30.2369 0 22.109 0C13.9812 0 8.42794 3.84757 5.20065 7.07522C1.7205 10.5557 0.161562 14.0139 0.0967896 14.1594C0.0329413 14.3032 -3.22504e-05 14.4587 2.36692e-08 14.616C3.22978e-05 14.7733 0.0330697 14.9289 0.096977 15.0726C0.161565 15.2181 1.72068 18.6755 5.20084 22.1553C8.42812 25.3823 13.9812 29.2289 22.109 29.2289C30.2369 29.2289 35.79 25.3823 39.0172 22.1553C42.4974 18.6755 44.0565 15.2181 44.1211 15.0726C44.185 14.9289 44.2181 14.7733 44.2181 14.616C44.2181 14.4587 44.1851 14.3032 44.1213 14.1594ZM22.109 26.9805C16.2299 26.9805 11.0957 24.8416 6.84851 20.6231C5.06774 18.8542 3.56089 16.8295 2.37774 14.6159C3.56088 12.4017 5.06779 10.3765 6.84869 8.60707C11.0957 4.3877 16.2301 2.24838 22.109 2.24838C27.988 2.24838 33.1224 4.38771 37.3694 8.60707C39.1502 10.3763 40.6571 12.4015 41.8402 14.6156C40.6472 16.9014 34.6698 26.9805 22.109 26.9805ZM22.109 5.99732C20.4044 5.99732 18.7381 6.5028 17.3207 7.44985C15.9034 8.39689 14.7987 9.74296 14.1463 11.3178C13.494 12.8927 13.3233 14.6257 13.6559 16.2975C13.9884 17.9694 14.8093 19.5051 16.0146 20.7105C17.22 21.9159 18.7557 22.7367 20.4276 23.0693C22.0995 23.4018 23.8324 23.2311 25.4073 22.5788C26.9822 21.9265 28.3283 20.8218 29.2753 19.4044C30.2223 17.9871 30.7278 16.3207 30.7278 14.6161C30.7252 12.3311 29.8163 10.1403 28.2006 8.52457C26.5848 6.9088 24.3941 5.99992 22.109 5.99732ZM22.109 20.9865C20.8491 20.9865 19.6174 20.6129 18.5698 19.9129C17.5222 19.2129 16.7057 18.218 16.2236 17.0539C15.7414 15.8899 15.6152 14.609 15.861 13.3733C16.1068 12.1376 16.7136 11.0025 17.6045 10.1115C18.4954 9.22063 19.6305 8.6139 20.8662 8.3681C22.102 8.1223 23.3828 8.24845 24.5469 8.73061C25.7109 9.21278 26.7058 10.0293 27.4058 11.0769C28.1058 12.1245 28.4794 13.3562 28.4794 14.6161C28.4776 16.3051 27.8058 17.9243 26.6115 19.1186C25.4172 20.3128 23.798 20.9846 22.109 20.9865Z" fill="black"/>
</svg>
