<svg width="29" height="22" viewBox="0 0 29 22" fill="none" xmlns="http://www.w3.org/2000/svg">
<path d="M16.376 0C9.74931 0 4.37598 4.92556 4.37598 11H0.375977L5.56264 15.7544L5.65598 15.9256L11.0426 11H7.04264C7.04264 6.27 11.216 2.44444 16.376 2.44444C21.536 2.44444 25.7093 6.27 25.7093 11C25.7093 15.73 21.536 19.5556 16.376 19.5556C13.8026 19.5556 11.4693 18.59 9.78931 17.0378L7.89598 18.7733C10.0693 20.7656 13.056 22 16.376 22C23.0026 22 28.376 17.0744 28.376 11C28.376 4.92556 23.0026 0 16.376 0ZM15.0426 6.11111V12.2222L20.7493 15.3267L21.7093 13.8478L17.0426 11.3056V6.11111H15.0426Z" fill="#495E57"/>
</svg>
